<mxfile host="app.diagrams.net" modified="2023-08-30T05:33:41.818Z" agent="Mozilla/5.0 (Macintosh; Intel Mac OS X 10_15_7) AppleWebKit/537.36 (KHTML, like Gecko) Chrome/116.0.0.0 Safari/537.36" version="21.6.9" etag="zjXyl0-2W_a4QOANwzKW" type="github">
  <diagram name="第 1 页" id="_jbqG42ynAipyEUHrYhT">
    <mxGraphModel>
      <root>
        <mxCell id="0" />
        <mxCell id="1" parent="0" />
      </root>
    </mxGraphModel>
  </diagram>
</mxfile>
